<svg width="48" height="48" viewBox="0 0 48 48" fill="none" xmlns="http://www.w3.org/2000/svg">
<path fill-rule="evenodd" clip-rule="evenodd" d="M24 48C37.2548 48 48 37.2548 48 24C48 10.7452 37.2548 0 24 0C10.7452 0 0 10.7452 0 24C0 37.2548 10.7452 48 24 48ZM15.7491 8.95982H13.6634V11.0486H11.5777V13.1374V15.2262V17.315H13.6634V19.4038V21.4926H11.5777V23.5814H9.49196V25.6702H7.40625V27.7589V29.8477V31.9365V34.0253H9.49196V36.1141H11.5777H13.6634H15.7491V34.0253H13.6634H11.5777H9.49196V31.9365V29.8477V27.7589V25.6702H11.5777V23.5814H13.6634V21.4926H15.7491V23.5814H17.8348H19.9205V21.4926V19.4038H17.8348V21.4926H15.7491V19.4038V17.315H17.8348V15.2262H19.9205V13.1374H22.0063H24.092H26.1777H28.2634H30.3491V15.2262H32.4348V17.315H34.5205V19.4038V21.4926H36.6063V23.5814V25.6702H38.692V27.7589V29.8477V31.9365V34.0253H36.6063H34.5205H32.4348V36.1141H34.5205H36.6063H38.692V34.0253H40.7777V31.9365V29.8477V27.7589V25.6702H38.692V23.5814V21.4926H36.6063V19.4038V17.315H38.692V15.2262V13.1374V11.0486H36.6063V8.95982H34.5205H32.4348H30.3491V11.0486H28.2634H26.1777H24.092H22.0063H19.9205V8.95982H17.8348H15.7491ZM30.3491 11.0486H32.4348H34.5205H36.6063V13.1374V15.2262V17.315H34.5205V15.2262H32.4348V13.1374H30.3491V11.0486ZM19.9205 11.0486V13.1374H17.8348V15.2262H15.7491V17.315H13.6634V15.2262V13.1374V11.0486H15.7491H17.8348H19.9205ZM22.0063 23.5814H24.092V25.6702H22.0063V23.5814ZM22.0063 29.8477V31.9365H19.9205V29.8477H22.0063ZM24.092 29.8477H22.0063V27.7589H24.092V29.8477ZM24.092 29.8477H26.1777V31.9365H24.092V29.8477ZM28.2634 21.4926H26.1777V23.5814H28.2634H30.3491V21.4926V19.4038H28.2634V21.4926Z" fill="white"/>
</svg>
