<svg width="48" height="48" viewBox="0 0 48 48" fill="none" xmlns="http://www.w3.org/2000/svg">
<path d="M21.576 24L16.728 19.152C16.4157 18.8287 16.243 18.3956 16.2469 17.9461C16.2508 17.4967 16.4311 17.0667 16.7489 16.7489C17.0667 16.431 17.4967 16.2507 17.9462 16.2468C18.3957 16.2429 18.8287 16.4157 19.152 16.728L24 21.576L28.848 16.728C29.0061 16.5642 29.1953 16.4336 29.4045 16.3438C29.6136 16.254 29.8386 16.2067 30.0662 16.2047C30.2938 16.2027 30.5195 16.2461 30.7302 16.3323C30.9409 16.4185 31.1323 16.5458 31.2933 16.7067C31.4542 16.8677 31.5815 17.0591 31.6677 17.2698C31.7539 17.4804 31.7973 17.7062 31.7953 17.9338C31.7933 18.1614 31.746 18.3864 31.6562 18.5955C31.5663 18.8047 31.4357 18.9938 31.272 19.152L26.424 24L31.272 28.848C31.4357 29.0061 31.5663 29.1953 31.6562 29.4044C31.746 29.6136 31.7933 29.8385 31.7953 30.0661C31.7973 30.2938 31.7539 30.5195 31.6677 30.7302C31.5815 30.9409 31.4542 31.1323 31.2933 31.2932C31.1323 31.4542 30.9409 31.5815 30.7302 31.6677C30.5195 31.7539 30.2938 31.7972 30.0662 31.7953C29.8386 31.7933 29.6136 31.746 29.4045 31.6562C29.1953 31.5663 29.0061 31.4357 28.848 31.272L24 26.424L19.152 31.272C18.8287 31.5842 18.3957 31.757 17.9462 31.7531C17.4967 31.7492 17.0667 31.5689 16.7489 31.2511C16.4311 30.9333 16.2508 30.5033 16.2469 30.0538C16.243 29.6043 16.4157 29.1713 16.728 28.848L21.576 24Z" fill="#FF0000"/>
<path d="M24 44.5714C26.7015 44.5714 29.3765 44.0393 31.8723 43.0055C34.3682 41.9717 36.636 40.4564 38.5462 38.5462C40.4564 36.636 41.9717 34.3682 43.0055 31.8723C44.0393 29.3765 44.5714 26.7015 44.5714 24C44.5714 21.2985 44.0393 18.6235 43.0055 16.1277C41.9717 13.6318 40.4564 11.364 38.5462 9.4538C36.636 7.54357 34.3682 6.02829 31.8723 4.99448C29.3765 3.96067 26.7015 3.42857 24 3.42857C18.5441 3.42857 13.3117 5.59591 9.4538 9.4538C5.59591 13.3117 3.42857 18.5441 3.42857 24C3.42857 29.4559 5.59591 34.6883 9.4538 38.5462C13.3117 42.4041 18.5441 44.5714 24 44.5714ZM24 48C17.6348 48 11.5303 45.4714 7.02944 40.9706C2.52856 36.4697 0 30.3652 0 24C0 17.6348 2.52856 11.5303 7.02944 7.02944C11.5303 2.52856 17.6348 0 24 0C30.3652 0 36.4697 2.52856 40.9706 7.02944C45.4714 11.5303 48 17.6348 48 24C48 30.3652 45.4714 36.4697 40.9706 40.9706C36.4697 45.4714 30.3652 48 24 48Z" fill="#FF0000"/>
</svg>
