<svg width="34" height="34" viewBox="0 0 34 34" fill="none" xmlns="http://www.w3.org/2000/svg">
<path d="M17 33C25.8368 33 33 25.8368 33 17C33 8.1632 25.8368 1 17 1C8.1632 1 1 8.1632 1 17C1 25.8368 8.1632 33 17 33Z" stroke="white" stroke-width="1.5" stroke-linecap="round" stroke-linejoin="round"/>
<path d="M21.8816 13.2169C22.4876 13.2169 22.9788 12.7257 22.9788 12.1197C22.9788 11.5138 22.4876 11.0226 21.8816 11.0226C21.2757 11.0226 20.7845 11.5138 20.7845 12.1197C20.7845 12.7257 21.2757 13.2169 21.8816 13.2169Z" fill="white"/>
<path d="M17.0002 12.3053C16.0716 12.3053 15.1639 12.5807 14.3919 13.0966C13.6198 13.6124 13.0181 14.3457 12.6627 15.2036C12.3074 16.0614 12.2144 17.0054 12.3956 17.9161C12.5767 18.8268 13.0238 19.6634 13.6804 20.32C14.337 20.9765 15.1736 21.4237 16.0843 21.6048C16.995 21.786 17.939 21.693 18.7968 21.3377C19.6547 20.9823 20.388 20.3806 20.9038 19.6085C21.4197 18.8365 21.6951 17.9288 21.6951 17.0002C21.6951 15.755 21.2004 14.5609 20.32 13.6804C19.4395 12.8 18.2454 12.3053 17.0002 12.3053ZM17.0002 20.0478C16.3974 20.0478 15.8082 19.8691 15.307 19.5342C14.8059 19.1993 14.4152 18.7233 14.1846 18.1665C13.9539 17.6096 13.8935 16.9968 14.0111 16.4056C14.1287 15.8145 14.419 15.2714 14.8452 14.8452C15.2714 14.419 15.8145 14.1287 16.4056 14.0111C16.9968 13.8935 17.6096 13.9539 18.1665 14.1846C18.7234 14.4152 19.1993 14.8059 19.5342 15.307C19.8691 15.8082 20.0478 16.3974 20.0478 17.0002C20.0478 17.8085 19.7267 18.5836 19.1552 19.1552C18.5836 19.7267 17.8085 20.0478 17.0002 20.0478Z" fill="white"/>
<path d="M17.0003 9.50466C19.4414 9.50466 19.7309 9.5138 20.6948 9.55799C21.2744 9.56488 21.8486 9.67131 22.3923 9.87266C22.7867 10.0248 23.1449 10.2578 23.4438 10.5568C23.7427 10.8557 23.9758 11.2139 24.1279 11.6083C24.3292 12.1519 24.4357 12.7261 24.4426 13.3058C24.4868 14.2696 24.4959 14.5591 24.4959 17.001C24.4959 19.4429 24.4868 19.7309 24.4426 20.6948C24.4357 21.2744 24.3292 21.8486 24.1279 22.3923C23.9758 22.7867 23.7427 23.1449 23.4438 23.4438C23.1449 23.7427 22.7867 23.9758 22.3923 24.1279C21.8486 24.3292 21.2744 24.4357 20.6948 24.4426C19.7309 24.4868 19.4414 24.4959 17.0003 24.4959C14.5591 24.4959 14.2696 24.4868 13.3058 24.4426C12.7261 24.4357 12.1519 24.3292 11.6083 24.1279C11.2139 23.9758 10.8557 23.7427 10.5568 23.4438C10.2578 23.1449 10.0248 22.7867 9.87266 22.3923C9.67131 21.8486 9.56488 21.2744 9.55799 20.6948C9.5138 19.7309 9.50466 19.4414 9.50466 17.0003C9.50466 14.5591 9.5138 14.2696 9.55799 13.3058C9.56488 12.7261 9.67131 12.1519 9.87266 11.6083C10.0248 11.2139 10.2578 10.8557 10.5568 10.5568C10.8557 10.2578 11.2139 10.0248 11.6083 9.87266C12.1519 9.67131 12.7261 9.56488 13.3058 9.55799C14.2696 9.5138 14.5591 9.50466 17.0003 9.50466ZM17.0003 7.85742C14.5172 7.85742 14.2056 7.86809 13.2304 7.91228C12.4721 7.92759 11.7219 8.07134 11.0117 8.33742C10.4043 8.57232 9.85259 8.93154 9.39206 9.39206C8.93154 9.85259 8.57232 10.4043 8.33742 11.0117C8.07126 11.7222 7.9275 12.4726 7.91228 13.2311C7.86809 14.2064 7.85742 14.5165 7.85742 17.0003C7.85742 19.4841 7.86809 19.7949 7.91228 20.7702C7.92759 21.5285 8.07134 22.2786 8.33742 22.9889C8.57232 23.5963 8.93154 24.148 9.39206 24.6085C9.85259 25.069 10.4043 25.4282 11.0117 25.6631C11.7222 25.9293 12.4726 26.0731 13.2311 26.0883C14.2064 26.1325 14.5172 26.1431 17.0003 26.1431C19.4833 26.1431 19.7949 26.1325 20.7702 26.0883C21.5287 26.0731 22.2792 25.9293 22.9896 25.6631C23.5971 25.4282 24.1487 25.069 24.6093 24.6085C25.0698 24.148 25.429 23.5963 25.6639 22.9889C25.9298 22.2784 26.0733 21.5279 26.0883 20.7694C26.1325 19.7942 26.1431 19.4841 26.1431 17.0003C26.1431 14.5165 26.1325 14.2056 26.0883 13.2304C26.073 12.4721 25.9292 11.7219 25.6631 11.0117C25.4282 10.4043 25.069 9.85259 24.6085 9.39206C24.148 8.93154 23.5963 8.57232 22.9889 8.33742C22.2784 8.07152 21.5279 7.92802 20.7694 7.91304C19.7942 7.86733 19.4841 7.85742 17.0003 7.85742Z" fill="white"/>
</svg>
