<svg width="47" height="38" viewBox="0 0 47 38" fill="none" xmlns="http://www.w3.org/2000/svg">
<path d="M20.5625 20.4615H23.5V23.3846H20.5625V20.4615Z" fill="white"/>
<path d="M20.5625 29.2308V32.1538H17.625V29.2308H20.5625Z" fill="white"/>
<path d="M26.4375 29.2308V32.1538H23.5V29.2308H26.4375Z" fill="white"/>
<path d="M8.8125 14.6154H11.75V17.5385H8.8125V14.6154Z" fill="white"/>
<path d="M11.75 17.5385H14.6875V20.4615H11.75V17.5385Z" fill="white"/>
<path d="M14.6875 17.5385H17.625V20.4615H14.6875V17.5385Z" fill="white"/>
<path d="M14.6875 14.6154H17.625V17.5385H14.6875V14.6154Z" fill="white"/>
<path d="M20.5625 26.3077H23.5V29.2308H20.5625V26.3077Z" fill="white"/>
<path d="M26.4375 17.5385H29.375V20.4615H26.4375V17.5385Z" fill="white"/>
<path d="M29.375 14.6154H32.3125V17.5385H29.375V14.6154Z" fill="white"/>
<path d="M29.375 17.5385H32.3125V20.4615H29.375V17.5385Z" fill="white"/>
<path d="M5.875 2.92308H8.8125V5.84615H5.875V2.92308Z" fill="white"/>
<path d="M5.875 5.84615H8.8125V8.76923H5.875V5.84615Z" fill="white"/>
<path d="M5.875 8.76923H8.8125V11.6923H5.875V8.76923Z" fill="white"/>
<path d="M0 23.3846H2.9375V26.3077H0V23.3846Z" fill="white"/>
<path d="M0 26.3077H2.9375V29.2308H0V26.3077Z" fill="white"/>
<path d="M0 29.2308H2.9375V32.1538H0V29.2308Z" fill="white"/>
<path d="M0 32.1538H2.9375V35.0769H0V32.1538Z" fill="white"/>
<path d="M11.75 35.0769V38H8.8125V35.0769H11.75Z" fill="white"/>
<path d="M8.8125 35.0769V38H5.875V35.0769H8.8125Z" fill="white"/>
<path d="M5.875 35.0769V38H2.9375L2.9375 35.0769H5.875Z" fill="white"/>
<path d="M14.6875 5.84615H17.625V8.76923H14.6875V5.84615Z" fill="white"/>
<path d="M11.75 8.76923H14.6875V11.6923H11.75V8.76923Z" fill="white"/>
<path d="M8.8125 11.6923H11.75V14.6154H8.8125V11.6923Z" fill="white"/>
<path d="M5.875 17.5385H8.8125V20.4615H5.875V17.5385Z" fill="white"/>
<path d="M2.9375 20.4615H5.875V23.3846H2.9375V20.4615Z" fill="white"/>
<path d="M8.8125 0H11.75V2.92308H8.8125V0Z" fill="white"/>
<path d="M11.75 0H14.6875V2.92308H11.75V0Z" fill="white"/>
<path d="M14.6875 0H17.625V2.92308H14.6875V0Z" fill="white"/>
<path d="M17.625 2.92308H20.5625V5.84615H17.625V2.92308Z" fill="white"/>
<path d="M20.5625 2.92308H23.5V5.84615H20.5625V2.92308Z" fill="white"/>
<path d="M23.5 2.92308H26.4375V5.84615H23.5V2.92308Z" fill="white"/>
<path d="M26.4375 2.92308H29.375V5.84615H26.4375V2.92308Z" fill="white"/>
<path d="M29.375 2.92308H32.3125V5.84615H29.375V2.92308Z" fill="white"/>
<path d="M32.3125 5.84615H35.25V8.76923H32.3125V5.84615Z" fill="white"/>
<path d="M35.25 8.76923H38.1875V11.6923H35.25V8.76923Z" fill="white"/>
<path d="M32.3125 0H35.25V2.92308H32.3125V0Z" fill="white"/>
<path d="M35.25 0H38.1875V2.92308H35.25V0Z" fill="white"/>
<path d="M38.1875 0H41.125V2.92308H38.1875V0Z" fill="white"/>
<path d="M44.0625 2.92308V5.84615H41.125V2.92308H44.0625Z" fill="white"/>
<path d="M44.0625 5.84615V8.76923H41.125V5.84615H44.0625Z" fill="white"/>
<path d="M44.0625 8.76923V11.6923H41.125V8.76923H44.0625Z" fill="white"/>
<path d="M41.125 11.6923V14.6154H38.1875V11.6923H41.125Z" fill="white"/>
<path d="M41.125 14.6154V17.5385H38.1875V14.6154H41.125Z" fill="white"/>
<path d="M44.0625 17.5385V20.4615H41.125V17.5385H44.0625Z" fill="white"/>
<path d="M44.0625 20.4615V23.3846H41.125V20.4615H44.0625Z" fill="white"/>
<path d="M47 23.3846V26.3077H44.0625V23.3846H47Z" fill="white"/>
<path d="M47 26.3077V29.2308H44.0625V26.3077H47Z" fill="white"/>
<path d="M47 29.2308V32.1538H44.0625V29.2308H47Z" fill="white"/>
<path d="M47 32.1538V35.0769H44.0625V32.1538H47Z" fill="white"/>
<path d="M44.0625 38H41.125V35.0769H44.0625V38Z" fill="white"/>
<path d="M41.125 38H38.1875V35.0769H41.125V38Z" fill="white"/>
<path d="M38.1875 38H35.25V35.0769H38.1875V38Z" fill="white"/>
</svg>
