<svg width="34" height="34" viewBox="0 0 34 34" fill="none" xmlns="http://www.w3.org/2000/svg">
<path d="M17 33C25.8368 33 33 25.8368 33 17C33 8.1632 25.8368 1 17 1C8.1632 1 1 8.1632 1 17C1 25.8368 8.1632 33 17 33Z" stroke="#FF0000" stroke-width="1.5" stroke-linecap="round" stroke-linejoin="round"/>
<path d="M23.4 22.7143H10.6C10.1757 22.7143 9.76869 22.5488 9.46863 22.2541C9.16857 21.9594 9 21.5597 9 21.1429V11.646C9.01795 11.2411 9.19441 10.8588 9.49254 10.5787C9.79068 10.2986 10.1874 10.1425 10.6 10.1429H23.4C23.8243 10.1429 24.2313 10.3084 24.5314 10.6031C24.8314 10.8978 25 11.2975 25 11.7143V21.1429C25 21.5597 24.8314 21.9594 24.5314 22.2541C24.2313 22.5488 23.8243 22.7143 23.4 22.7143ZM10.6 13.182V21.1429H23.4V13.182L17 17.3715L10.6 13.182ZM11.24 11.7143L17 15.4857L22.76 11.7143H11.24Z" fill="#FF0000"/>
</svg>
