<svg width="117" height="80" viewBox="0 0 117 80" fill="none" xmlns="http://www.w3.org/2000/svg">
<path fill-rule="evenodd" clip-rule="evenodd" d="M46.0468 47.9082L40.3505 79.8593L34.6783 48.0437C36.8017 48.5318 38.8997 48.5601 41.5737 48.5601C43.0747 48.5601 44.5776 48.3299 46.0468 47.9082ZM20.6338 17.663C17.0834 18.3559 14.8654 19.8607 14.9166 22.9949C9.79643 21.4182 4.85003 16.4897 4.12469 14.997C13.2654 11.0856 20.8482 9.05675 29.3555 8.29333C27.6529 9.31752 25.5113 10.8491 24.6113 11.8443C24.2769 12.2142 24.3348 12.2632 23.9705 12.6746C22.6089 14.2117 21.4959 15.8927 20.6338 17.663Z" fill="#FEFEFE"/>
<path fill-rule="evenodd" clip-rule="evenodd" d="M41.3192 44.9289C47.7177 44.9289 54.16 39.9194 56.6234 34.0229C59.4441 27.2715 58.0094 19.5734 52.8956 14.4812C50.9483 12.542 50.0472 11.995 47.6692 10.796C43.0627 8.47338 36.9908 8.57962 32.3464 10.7943C30.9701 11.4506 28.1993 13.3111 27.215 14.3996C26.937 14.7072 26.9851 14.7478 26.6822 15.0899C21.1125 21.3777 20.5423 30.5594 25.2422 37.2418C25.7462 37.9585 26.4835 38.9222 27.1194 39.5584C28.5119 40.952 30.2907 42.2475 32.0682 43.1715C35.329 44.8663 37.6838 44.9289 41.3192 44.9289ZM32.0583 27.9795C31.8962 27.2843 31.2357 25.9806 30.8936 25.3001L27.3405 17.8449H53.9001C53.7102 18.5561 51.4648 22.3914 51.2792 23.087H34.5045L32.0583 27.9795ZM35.7277 24.6596L41.1076 24.6793L39.9214 27.6301H48.658C48.2376 29.4348 46.8069 31.0673 46.3865 32.8721H38.1739C37.5454 34.0602 36.9897 35.6307 36.4312 36.8955L34.5045 40.9099C34.454 40.3035 33.949 39.3893 33.6814 38.7626C33.3532 37.9942 33.0543 37.5349 32.7327 36.7407C31.4088 33.4724 31.0924 34.3943 31.9413 32.7576C32.3194 32.0287 32.4996 31.4503 32.8727 30.7161L35.7277 24.6596Z" fill="#FF0000"/>
<path fill-rule="evenodd" clip-rule="evenodd" d="M104.597 11.3752V14.6306H99.8927L98.3481 11.3752H104.597Z" fill="#FF0000"/>
<path fill-rule="evenodd" clip-rule="evenodd" d="M72.8342 33.4208L76.1604 33.433L75.427 35.2655H80.8286C80.5687 36.3862 79.6842 37.4001 79.4242 38.5209H74.3467C73.9581 39.2586 73.2557 40.9847 72.9104 41.7701L71.7192 44.263C71.688 43.8865 71.3758 43.3188 71.2103 42.9296C71.0074 42.4524 70.8225 42.1671 70.6237 41.674C69.8053 39.6443 69.6096 40.2168 70.1345 39.2004C70.3682 38.7478 70.8385 37.6379 71.0691 37.1819L72.8342 33.4208ZM98.7287 17.4517H101.361C101.762 16.6327 102.081 15.9752 102.254 15.6071L105.58 15.6193C105.475 15.8807 105.156 16.5569 104.725 17.4517H107.194C107.754 16.3384 108.25 15.3453 108.603 14.6306H102.712L104.231 11.3752H113.568C113.488 11.675 112.822 12.8692 112.367 13.7404C111.909 14.8857 106.304 25.8579 106.148 26.5322L102.556 26.5861C102.95 25.8226 104.225 23.3222 105.55 20.7071H103.144C101.839 23.387 100.487 26.1705 100.403 26.5322L96.8118 26.5861C97.2574 25.7234 98.5346 23.1694 99.7551 20.7071H97.2094L98.7287 17.4517ZM91.7517 23.3307H97.1541C97.0367 23.7724 95.6485 26.1542 95.5337 26.5861H86.2981L87.7617 23.4502C88.0951 22.695 88.8418 21.0112 89.0356 20.636C89.2694 20.1833 89.3808 19.8241 89.6115 19.3682L93.2718 11.5516L97.0339 11.5638C94.7016 16.7882 96.0064 13.6622 91.8115 23.2056L91.7517 23.3307ZM77.1527 23.3307H83.0829L84.2869 20.7071H82.5877L78.6719 20.7611C79.5141 19.1305 80.2885 17.2833 81.0751 15.6071L84.4013 15.6193L83.668 17.4517H89.1941L86.4137 23.5105L85.118 26.5861H75.6334L77.1527 23.3307ZM83.0526 11.3752H92.3892C92.2718 11.8168 90.8835 14.1986 90.7687 14.6306H81.5332L83.0526 11.3752ZM70.9327 23.3307H75.7925C75.6751 23.7724 74.4615 26.1542 74.3467 26.5861H65.4791L66.9426 23.4502C67.2761 22.695 68.0228 21.0112 68.2166 20.636C68.4503 20.1833 68.5617 19.8241 68.7924 19.3682L70.5575 15.6071L73.8837 15.6193L73.1503 17.4517H78.6719C78.412 18.5725 77.5276 19.5864 77.2675 20.7071H72.07C71.6814 21.4449 71.3377 22.4202 70.9925 23.2056L70.9327 23.3307ZM81.7929 11.3752C81.6755 11.8168 80.2873 14.1986 80.1725 14.6306H62.6052L61.0927 17.6688C60.9926 17.2371 60.5841 16.4275 60.3726 16.0049L58.1758 11.3752H81.7929ZM63.3614 15.6071L67.1235 15.6193L63.4501 23.9641L62.2589 26.457C62.2276 26.0804 61.9154 25.5127 61.7499 25.1235C61.5471 24.6463 61.3622 24.3611 61.1634 23.868C60.345 21.8383 60.1492 22.4107 60.6741 21.3944C60.9079 20.9417 61.0193 20.5826 61.25 20.1266L63.3614 15.6071ZM117 29.314C116.883 29.7556 115.495 32.1374 115.38 32.5694H94.2455L95.7648 29.314H117ZM105.765 33.5459L109.524 33.5582C108.606 35.8518 110.903 30.4459 106.2 41.1445L105.009 43.6374C104.978 43.2608 104.665 42.6931 104.5 42.3039C104.297 41.8268 104.112 41.5415 103.913 41.0484C103.095 39.0187 102.899 39.5911 103.424 38.5748C103.658 38.1222 103.769 37.763 104 37.307L105.765 33.5459ZM89.865 41.2696H95.7951L96.9991 38.646H95.2999L91.3841 38.7C92.2263 37.0694 93.0007 35.2222 93.7874 33.5459L97.1135 33.5582L96.3802 35.3906H101.906L99.1259 41.4494L97.8303 44.525H88.3456L89.865 41.2696ZM83.7032 41.2696H88.6801C88.5627 41.7113 87.2445 44.093 87.1297 44.525H78.2496L79.7133 41.3891C80.0467 40.6338 80.7933 38.95 80.9871 38.5748C81.2209 38.1222 81.3324 37.763 81.563 37.307L83.3281 33.5459L86.6542 33.5582L85.9209 35.3906H91.3225C91.0626 36.5114 90.1781 37.5252 89.9181 38.646H84.8406C84.452 39.3837 84.1083 40.359 83.763 41.1445L83.7032 41.2696ZM85.2268 29.314H94.5635C94.4461 29.7556 93.0578 32.1374 92.943 32.5694H83.7075L85.2268 29.314ZM70.5656 35.4825C70.4654 35.0508 70.0569 34.2412 69.8454 33.8186L67.6487 29.1889H84.0697C83.9522 29.6305 82.5639 32.0123 82.4491 32.4442H72.078L70.5656 35.4825Z" fill="#FF0000"/>
<path fill-rule="evenodd" clip-rule="evenodd" d="M0 7.84161C12.9436 2.27911 26.2828 -0.217804 39.9747 0.0148463C53.6667 -0.217804 67.0058 2.27911 79.9495 7.84161C79.9103 7.93661 79.8708 8.03125 79.831 8.12555H65.3465C57.0646 5.9417 48.5889 4.92879 39.9747 4.75307C27.0296 5.01714 14.3972 7.17186 2.26488 12.3499C1.41592 10.9415 0.658858 9.44098 0 7.84161Z" fill="#FF0000"/>
</svg>
